<?xml version="1.0" standalone="no"?><!DOCTYPE svg PUBLIC "-//W3C//DTD SVG 1.1//EN" "http://www.w3.org/Graphics/SVG/1.1/DTD/svg11.dtd"><svg t="1620708584935" class="icon" viewBox="0 0 1024 1024" version="1.1" xmlns="http://www.w3.org/2000/svg" p-id="3283" xmlns:xlink="http://www.w3.org/1999/xlink" width="200" height="200"><defs><style type="text/css"></style></defs><path d="M919.3 259.8l-519.2-44.5c-22.5 0-47.6 18.2-40.7 40.7l83.8 312.1c9.5 28.2 31.4 28.5 53.9 28.5h391.7c22.5 0 40.7-18.2 40.7-40.7L960 306c0-22.4-12.5-43.7-40.7-46.2z m-77.9 383.9s69 36.4-3 86.4H349.2L199.2 214l-113-2.5S32 153.3 93 122.4L262.4 136l138.9 507.7h440.1zM449.2 759.3c-39.3 0-71.2 31.9-71.2 71.2 0 39.3 31.9 71.1 71.2 71.1 39.3 0 71.2-31.9 71.2-71.1-0.1-39.4-31.9-71.2-71.2-71.2z m322.1 1.3c-39 0-70.5 31.6-70.5 70.5 0 39 31.6 70.5 70.5 70.5 39 0 70.5-31.6 70.5-70.5 0-39-31.6-70.5-70.5-70.5z" p-id="3284"></path></svg>